<?xml version="1.0" encoding="iso-8859-1" ?>
<!-- Uploaded to: SVG Repo, www.svgrepo.com, Generator: SVG Repo Mixer Tools -->
<svg
    version="1.1"
    id="Layer_1"
    xmlns="http://www.w3.org/2000/svg"
    xmlns:xlink="http://www.w3.org/1999/xlink"
    viewBox="0 0 512 512"
    xml:space="preserve"
>
<path
        style="fill:#2BA5F7;"
        d="M426.578,330.454c-0.574,93.717-76.724,169.515-170.571,169.515
	c-93.86,0-170.01-75.798-170.584-169.515c25.066,14.463,54.149-1.069,85.162-1.069c31.13,0,60.304-30.644,85.422-45.211
	c25.118,14.567,54.292,45.211,85.422,45.211C372.442,329.385,401.525,344.918,426.578,330.454z"
    />
<path
        style="fill:#F95428;"
        d="M512,182.615c0,63.2-34.365,118.366-85.422,147.84c0-0.352,0-0.717,0-1.069
	c0-63.187-67.386-85.318-118.444-114.805c-0.391-62.639-1.5-150.304-52.127-179.648c25.118-14.567,54.292-22.901,85.422-22.901
	C435.628,12.031,512,88.402,512,182.615z"
    />
<path
        style="fill:#F7B239;"
        d="M256.007,34.932c-50.627,29.344,9.086,139.653,8.695,202.292
	c-51.058,29.474-179.279,28.961-179.279,92.161c0,0.352,0,0.717,0,1.069C34.365,300.98,0,245.815,0,182.615
	C0,88.402,76.372,12.031,170.584,12.031C201.714,12.031,230.888,20.364,256.007,34.932z"
    />
<path
        style="fill:#666666;"
        d="M256.007,143.325c31.013,0,60.096,23.758,85.162,38.221c0,0.352,0,0.717,0,1.069
	c0,31.541-3.289,77.082-18.215,102.429c-14.926,25.346-41.489,30.498-66.946,45.254c-26.65-15.448-64.993-33.093-79.988-60.034
	c-13.653-24.529-5.174-57.586-5.174-87.649c0-0.352,0-0.717,0-1.069C195.911,167.082,224.994,143.325,256.007,143.325z"
    />
<path
        style="fill:#2197D8;"
        d="M426.578,329.385c0,0.352,0,0.717,0,1.069c-25.053,14.463-54.136,22.745-85.149,22.745
	c-31.13,0-60.304-8.334-85.422-22.901c50.914-29.513,85.162-84.601,85.162-147.683c0-0.352,0-0.717,0-1.069
	C392.226,211.033,426.578,266.199,426.578,329.385z"
    />
<path
        style="fill:#E09B2D;"
        d="M170.845,182.615c0,63.082,34.247,118.17,85.162,147.683c-25.118,14.567-54.292,22.901-85.422,22.901
	c-31.013,0-60.096-8.281-85.162-22.745c0-0.352,0-0.717,0-1.069c0-63.2,34.365-118.366,85.422-147.84
	C170.845,181.898,170.845,182.263,170.845,182.615z"
    />
<path
        style="fill:#E54728;"
        d="M341.168,181.546c-25.066-14.463-54.149-22.745-85.162-22.745s-60.096,8.281-85.162,22.745
	c0.391-62.639,34.534-117.27,85.162-146.614C306.634,64.276,340.777,118.907,341.168,181.546z"
    />
</svg>
